# xmcd
#
# Track frame offsets:
#	150
#	13497
#	33020
#	49711
#	71576
#	85947
#	98332
#	116721
#	126148
#	139586
#	156030
#
# Disc length: 2265 seconds
#
# Revision: 1
# Processed by: cddbd v1.5.2PL0 Copyright (c) Steve Scherf et al.
# Submitted via: EasyCDDAExtractor 12.1.0.1
#
DISCID=8708d70b
DTITLE=Lino Muoio - Blues On Me
DYEAR=2008
DGENRE=Blues
TTITLE0=Consolation Blues
TTITLE1=Break Me Down
TTITLE2=Sunrise
TTITLE3=Feelin' Down
TTITLE4=No Time Blues
TTITLE5=My Better Days
TTITLE6=Bad Job Blues
TTITLE7=Chinese Wood
TTITLE8=Roosevelt Stomp
TTITLE9=Paying Your Dues
TTITLE10=Midnight Walk
EXTD=
EXTT0=
EXTT1=
EXTT2=
EXTT3=
EXTT4=
EXTT5=
EXTT6=
EXTT7=
EXTT8=
EXTT9=
EXTT10=
PLAYORDER=
